<?xml version="1.0" standalone="no"?>
<!DOCTYPE svg PUBLIC "-//W3C//DTD SVG 20010904//EN"
 "http://www.w3.org/TR/2001/REC-SVG-20010904/DTD/svg10.dtd">
<svg version="1.0" xmlns="http://www.w3.org/2000/svg"
 width="87.000000pt" height="23.000000pt" viewBox="0 0 87.000000 23.000000"
 preserveAspectRatio="xMidYMid meet">

<g transform="translate(0.000000,23.000000) scale(0.100000,-0.100000)"
fill="#000000" stroke="none">
<path d="M38 209 c-15 -8 -18 -24 -18 -82 0 -44 5 -78 12 -85 8 -8 58 -12 159
-12 139 0 148 1 182 25 31 20 51 25 124 27 l88 3 0 40 0 40 -88 3 c-73 2 -93
7 -124 27 -34 24 -43 25 -177 25 -78 0 -149 -5 -158 -11z m60 -36 c3 -22 8
-23 92 -23 84 0 89 1 92 23 2 18 9 22 38 20 62 -3 90 -66 51 -114 -19 -23 -23
-24 -173 -24 l-153 0 -3 59 c-2 32 -1 65 2 73 9 23 50 12 54 -14z m162 12 c0
-12 -14 -15 -70 -15 -56 0 -70 3 -70 15 0 12 14 15 70 15 56 0 70 -3 70 -15z
m265 -60 c0 -17 -8 -20 -57 -23 -57 -3 -58 -2 -58 23 0 25 1 26 58 23 49 -3
57 -6 57 -23z m45 0 c0 -8 -4 -17 -10 -20 -6 -4 -10 5 -10 20 0 15 4 24 10 20
6 -3 10 -12 10 -20z"/>
<path d="M700 176 c0 -2 7 -21 16 -42 9 -22 21 -50 26 -64 l10 -25 13 25 c18
32 19 49 2 25 -13 -16 -16 -14 -32 34 -11 28 -23 51 -27 51 -4 0 -8 -2 -8 -4z"/>
<path d="M787 153 c-7 -39 -1 -40 11 -4 6 17 7 31 3 31 -5 0 -11 -12 -14 -27z"/>
</g>
</svg>
